<?xml version="1.0" standalone="no"?>
<!DOCTYPE svg PUBLIC "-//W3C//DTD SVG 20010904//EN"
 "http://www.w3.org/TR/2001/REC-SVG-20010904/DTD/svg10.dtd">
<svg version="1.0" xmlns="http://www.w3.org/2000/svg"
 width="240.000000pt" height="240.000000pt" viewBox="0 0 240.000000 240.000000"
 preserveAspectRatio="xMidYMid meet">
<metadata>
Created by potrace 1.14, written by Peter Selinger 2001-2017
</metadata>
<g transform="translate(0.000000,240.000000) scale(0.100000,-0.100000)"
fill="#000000" stroke="none">
<path d="M0 1200 l0 -1200 1200 0 1200 0 0 1200 0 1200 -1200 0 -1200 0 0
-1200z m1336 849 c381 -67 671 -371 714 -747 62 -546 -431 -1019 -970 -931
-36 5 -106 24 -157 41 l-92 31 -207 -41 c-114 -23 -210 -40 -213 -37 -2 3 8
101 24 219 l28 213 -36 84 c-53 124 -71 228 -64 368 7 142 24 206 89 339 41
85 65 119 136 193 97 102 134 130 248 187 160 81 339 110 500 81z"/>
<path d="M1070 1885 c-152 -34 -259 -94 -366 -206 -125 -131 -174 -251 -182
-445 -5 -138 15 -239 69 -346 l30 -59 -19 -137 c-11 -75 -18 -138 -17 -140 1
-1 64 10 139 24 l137 26 57 -25 c101 -45 183 -59 317 -54 181 7 295 50 428
163 64 53 145 164 176 239 164 395 -31 819 -434 945 -91 28 -245 35 -335 15z
m-63 -267 c14 -18 73 -190 73 -212 0 -9 -16 -37 -36 -62 -27 -32 -35 -50 -30
-67 17 -71 150 -210 244 -255 l54 -27 54 60 54 60 53 -28 c144 -76 157 -85
157 -120 -1 -57 -34 -112 -86 -143 -68 -40 -150 -38 -259 5 -163 66 -277 159
-383 313 -83 122 -115 198 -115 277 0 79 17 125 67 175 33 32 42 36 90 36 31
0 58 -5 63 -12z"/>
</g>
</svg>
