<?xml version="1.0" standalone="no"?>
<!DOCTYPE svg PUBLIC "-//W3C//DTD SVG 20010904//EN"
 "http://www.w3.org/TR/2001/REC-SVG-20010904/DTD/svg10.dtd">
<svg version="1.0" xmlns="http://www.w3.org/2000/svg"
 width="512.000000pt" height="512.000000pt" viewBox="0 0 512.000000 512.000000"
 preserveAspectRatio="xMidYMid meet">
<metadata>
Created by potrace 1.14, written by Peter Selinger 2001-2017
</metadata>
<g transform="translate(0.000000,512.000000) scale(0.100000,-0.100000)"
fill="#000000" stroke="none">
<path d="M3238 4455 c-2 -2 -28 -7 -58 -10 -78 -9 -203 -39 -290 -70 -75 -27
-246 -103 -265 -117 -5 -5 -44 -30 -86 -57 -182 -117 -365 -303 -470 -478 -28
-48 -33 -52 -52 -41 -12 6 -23 10 -25 9 -1 -2 -33 2 -70 8 -129 21 -240 26
-367 15 -109 -10 -116 -11 -180 -25 -33 -7 -67 -13 -75 -14 -8 0 -19 -3 -25
-6 -5 -4 -23 -9 -40 -13 -36 -8 -179 -62 -217 -82 -15 -8 -31 -15 -35 -16 -5
-1 -42 -22 -83 -47 -68 -41 -108 -68 -195 -134 -60 -45 -205 -197 -264 -276
-100 -136 -183 -297 -233 -456 -25 -80 -34 -116 -53 -233 -21 -124 -20 -343 1
-462 3 -19 8 -46 10 -60 13 -71 60 -224 94 -303 79 -183 187 -344 323 -480
103 -103 129 -124 249 -204 138 -91 346 -183 473 -209 11 -2 49 -10 85 -18 76
-16 459 -20 530 -5 25 5 63 12 84 15 22 3 49 11 60 17 12 6 24 10 29 9 20 -6
160 49 292 115 59 29 207 126 249 163 133 114 239 232 305 335 17 27 31 44 31
37 0 -7 3 -11 8 -10 4 1 32 -4 63 -10 30 -7 68 -15 84 -18 16 -3 31 -7 35 -9
5 -3 197 -18 235 -18 7 0 11 -99 10 -299 0 -164 3 -298 7 -298 4 0 18 10 31
23 14 12 69 63 123 112 54 50 105 97 113 105 9 8 70 64 136 125 252 230 502
476 605 593 30 35 62 70 70 79 8 9 36 43 62 77 26 34 51 66 56 71 92 116 263
416 276 485 1 3 4 10 7 15 9 14 57 174 64 210 22 125 27 172 29 260 10 357
-114 721 -340 1007 -251 315 -619 528 -1014 585 -41 6 -387 13 -392 8z m348
-1395 c29 -1 103 -64 127 -108 61 -112 27 -247 -77 -312 -45 -27 -69 -33 -133
-32 -60 1 -107 20 -152 64 -53 52 -66 85 -66 168 0 65 4 81 27 117 51 78 146
125 223 111 22 -4 45 -7 51 -8z m-795 -2 c21 -6 59 -30 83 -54 129 -123 77
-337 -95 -388 -57 -17 -104 -13 -164 14 -51 22 -80 50 -107 103 -94 185 81
386 283 325z m1617 -9 c111 -51 166 -189 119 -301 -35 -84 -124 -141 -217
-141 -66 1 -117 21 -159 64 -41 40 -57 73 -68 134 -20 112 47 216 167 259 30
10 122 2 158 -15z"/>
</g>
</svg>
